<svg width="20" height="20" viewBox="0 0 20 20" fill="none" xmlns="http://www.w3.org/2000/svg">
<rect width="20" height="20" rx="10" fill="#2AAA94"/>
<path d="M11.5598 10.499C11.5598 9.72103 11.4296 9.14323 11.1692 8.76562C10.912 8.38802 10.5523 8.19922 10.0901 8.19922C9.63108 8.19922 9.27464 8.38639 9.02073 8.76074C8.76683 9.13509 8.63987 9.71452 8.63987 10.499C8.63987 11.277 8.76683 11.8548 9.02073 12.2324C9.27464 12.61 9.63108 12.7988 10.0901 12.7988C10.3212 12.7988 10.5279 12.7533 10.7102 12.6621C10.8925 12.5677 11.0455 12.4261 11.1692 12.2373C11.2961 12.0485 11.3922 11.8109 11.4573 11.5244C11.5256 11.2347 11.5598 10.8929 11.5598 10.499ZM12.8928 10.499C12.8928 11.1631 12.8196 11.7246 12.6731 12.1836C12.5266 12.6426 12.3264 13.0137 12.0725 13.2969C11.8186 13.5801 11.5207 13.7852 11.1789 13.9121C10.8404 14.0358 10.4774 14.0977 10.0901 14.0977C9.7027 14.0977 9.33812 14.0342 8.99632 13.9072C8.65778 13.777 8.36155 13.5703 8.10765 13.2871C7.857 13.0007 7.65843 12.6296 7.51194 12.1738C7.36546 11.7148 7.29222 11.1566 7.29222 10.499C7.29222 9.83496 7.36546 9.27507 7.51194 8.81934C7.65843 8.36035 7.857 7.98926 8.10765 7.70605C8.36155 7.42285 8.65778 7.21777 8.99632 7.09082C9.33812 6.96387 9.7027 6.90039 10.0901 6.90039C10.4774 6.90039 10.8404 6.96549 11.1789 7.0957C11.5207 7.22266 11.8186 7.42936 12.0725 7.71582C12.3264 8.00228 12.5266 8.37337 12.6731 8.8291C12.8196 9.28483 12.8928 9.84147 12.8928 10.499Z" fill="white"/>
</svg>
